0
SECTION
2
HEADER
9
$INSUNITS
70
4
9
$ACADVER
1
AC1014
9
$HANDSEED
5
FFFF
0
ENDSEC
0
SECTION
2
TABLES
0
TABLE
2
VPORT
5
8
100
AcDbSymbolTable
0
ENDTAB
0
TABLE
2
LTYPE
5
5
100
AcDbSymbolTable
0
LTYPE
5
14
100
AcDbSymbolTableRecord
100
AcDbLinetypeTableRecord
2
BYBLOCK
70
0
0
LTYPE
5
15
100
AcDbSymbolTableRecord
100
AcDbLinetypeTableRecord
2
BYLAYER
70
0
0
ENDTAB
0
TABLE
2
LAYER
5
2
100
AcDbSymbolTable
70
2
0
LAYER
5
50
100
AcDbSymbolTableRecord
100
AcDbLayerTableRecord
2
0
70
0
6
CONTINUOUS
0
ENDTAB
0
TABLE
2
STYLE
5
3
100
AcDbSymbolTable
70
1
0
STYLE
5
11
100
AcDbSymbolTableRecord
100
AcDbTextStyleTableRecord
2
STANDARD
70
0
0
ENDTAB
0
TABLE
2
VIEW
5
6
100
AcDbSymbolTable
70
0
0
ENDTAB
0
TABLE
2
UCS
5
7
100
AcDbSymbolTable
70
0
0
ENDTAB
0
TABLE
2
APPID
5
9
100
AcDbSymbolTable
70
2
0
APPID
5
12
100
AcDbSymbolTableRecord
100
AcDbRegAppTableRecord
2
ACAD
70
0
0
ENDTAB
0
TABLE
2
DIMSTYLE
5
A
100
AcDbSymbolTable
70
1
0
ENDTAB
0
TABLE
2
BLOCK_RECORD
5
1
100
AcDbSymbolTable
70
1
0
BLOCK_RECORD
5
1F
100
AcDbSymbolTableRecord
100
AcDbBlockTableRecord
2
*MODEL_SPACE
0
BLOCK_RECORD
5
1B
100
AcDbSymbolTableRecord
100
AcDbBlockTableRecord
2
*PAPER_SPACE
0
ENDTAB
0
ENDSEC
0
SECTION
2
BLOCKS
0
BLOCK
5
20
100
AcDbEntity
100
AcDbBlockBegin
2
*MODEL_SPACE
0
ENDBLK
5
21
100
AcDbEntity
100
AcDbBlockEnd
0
BLOCK
5
1C
100
AcDbEntity
100
AcDbBlockBegin
2
*PAPER_SPACE
0
ENDBLK
5
1D
100
AcDbEntity
100
AcDbBlockEnd
0
ENDSEC
0
SECTION
2
ENTITIES
0
LWPOLYLINE
5
100
100
AcDbEntity
8
0
100
AcDbPolyline
90
30
70
1
43
0.0
10
40.239746111167236
20
20.415252445458684
10
48.900000149011618
20
15.415252445458689
10
40
20
0
10
22.199999701976772
20
0
10
22.199999701976779
20
10
10
17.800000298023225
20
10
10
17.800000298023225
20
0
10
0
20
0
10
-8.9000001490116336
20
15.41525244545873
10
-0.23974611116724498
20
20.415252445458716
10
-2.4397458131440186
20
24.22576370591888
10
-11.099999850988407
20
19.22576370591889
10
-20.000000000000018
20
34.641016151377578
10
-11.099999850988382
20
50.05626859683629
10
-2.4397458131439977
20
45.05626859683629
10
-0.23974611116721722
20
48.866779857296443
10
-8.9000001490116034
20
53.86677985729645
10
1.1102230246251565e-14
20
69.282032302755127
10
17.800000298023242
20
69.282032302755113
10
17.800000298023239
20
59.282032302755105
10
22.199999701976793
20
59.282032302755105
10
22.199999701976793
20
69.282032302755113
10
40.000000000000014
20
69.282032302755113
10
48.900000149011632
20
53.866779857296393
10
40.23974611116725
20
48.866779857296407
10
42.439745813144029
20
45.05626859683624
10
51.099999850988411
20
50.056268596836233
10
60.000000000000007
20
34.641016151377556
10
51.099999850988389
20
19.225763705918855
10
42.439745813144015
20
24.225763705918851
0
LWPOLYLINE
5
101
100
AcDbEntity
8
0
100
AcDbPolyline
90
25
70
1
43
0.0
10
127.05379429007523
20
48.514989078912087
10
132.90040153477699
20
40.467824571208823
10
136.46007980606163
20
43.054082221313728
10
130.61347256135988
20
51.101246729016978
10
145
20
61.553670743505066
10
159.38652743864012
20
51.101246729016978
10
153.53992019393837
20
43.054082221313706
10
157.09959846522301
20
40.467824571208823
10
162.94620570992475
20
48.514989078912095
10
177.36067977499789
20
38.042260651806139
10
171.86881392531032
20
21.140035537847716
10
162.37755940628855
20
24.223931073037477
10
161.01788329567228
20
20.039278291503315
10
170.50913781469404
20
16.955382756313547
10
165
20
0
10
147.20000216066839
20
0
10
147.20000216066839
20
10
10
142.79999783933161
20
10
10
142.79999783933161
20
0
10
125
20
0
10
119.49086218530593
20
16.955382756313586
10
128.98211670432772
20
20.039278291503333
10
127.62244059371145
20
24.223931073037495
10
118.13118607468967
20
21.140035537847748
10
112.63932022500211
20
38.042260651806139
0
ENDSEC
0
SECTION
2
OBJECTS
0
DICTIONARY
5
C
100
AcDbDictionary
3
ACAD_GROUP
350
D
3
ACAD_MLINESTYLE
350
17
0
DICTIONARY
5
D
100
AcDbDictionary
0
DICTIONARY
5
1A
330
C
100
AcDbDictionary
0
DICTIONARY
5
17
100
AcDbDictionary
0
ENDSEC
0
EOF
